Coordinates
version=1
nRows=8
nColumns=36
inDegrees=yes

Units are S.I. units (second, meters, Newtons, ...)
If the header above contains a line with 'inDegrees', this indicates whether rotational values are in degrees (yes) or radians (no).

endheader
time	pelvis_tilt	pelvis_list	pelvis_rotation	pelvis_tx	pelvis_ty	pelvis_tz	hip_flexion_r	hip_adduction_r	hip_rotation_r	knee_angle_r	knee_angle_r_beta	ankle_angle_r	subtalar_angle_r	mtp_angle_r	hip_flexion_l	hip_adduction_l	hip_rotation_l	knee_angle_l	knee_angle_l_beta	ankle_angle_l	subtalar_angle_l	mtp_angle_l	lumbar_extension	lumbar_bending	lumbar_rotation	arm_flex_r	arm_add_r	arm_rot_r	elbow_flex_r	pro_sup_r	arm_flex_l	arm_add_l	arm_rot_l	elbow_flex_l	pro_sup_l
      6.03333330	     -0.09685360	     -0.95914146	     -1.36975210	      0.19896774	      0.96225277	      0.08048363	      2.19440493	     -0.37629055	    -18.68665557	      2.49626699	      0.04356808	      2.02867919	      5.43953445	     -7.49999987	      1.22615390	     -6.08053356	    -20.50742386	      0.93066022	      0.01624309	      3.83809070	      6.70411313	     -7.49999987	      2.43226988	      1.94848360	      2.21898719	     35.92426218	      8.48352123	     46.82848662	    122.53269128	     96.81532139	     53.40289605	     11.73367247	     68.71011509	    123.84625487	     70.36213505
      6.05000000	     -0.00339914	     -0.90153630	     -1.26288803	      0.20146555	      0.96034299	      0.08097787	      1.95731248	     -0.43951517	    -18.50156807	      2.44326381	      0.04264300	      2.35867308	      5.57855574	     -7.49999987	      1.14447544	     -5.98419414	    -20.61792835	      1.04870445	      0.01830335	      3.95756721	      6.32715988	     -7.49999987	      2.75858261	      2.02077512	      2.18358415	     35.62529886	      8.85966700	     47.52034616	    122.46785807	     97.02179001	     52.87780557	     11.55877510	     68.53390665	    123.53262644	     70.91283972
      6.06666670	      0.09269773	     -0.83918117	     -1.27710972	      0.20144440	      0.96150653	      0.07977399	      1.76535313	     -0.52941682	    -18.38595718	      2.37069324	      0.04137640	      2.49721967	      5.68240809	     -7.49999987	      1.10330879	     -5.90101562	    -20.73549137	      1.13629327	      0.01983206	      3.89789345	      6.15663429	     -7.49999987	      2.92158377	      2.13860685	      2.34794551	     35.42231109	      8.84507038	     47.59499445	    122.24620060	     97.14275615	     52.56281559	     11.48122631	     68.19847437	    123.36996868	     71.07288260
      6.08333330	      0.18322830	     -0.72436006	     -1.26670558	      0.20508972	      0.96415463	      0.08026058	      1.53525837	     -0.63550135	    -18.28906590	      2.16800580	      0.03783884	      2.55439466	      5.72266295	     -7.49999987	      0.98341480	     -5.77314538	    -20.90654833	      1.18489241	      0.02068027	      3.79067161	      6.07097362	     -7.49999987	      3.14644207	      2.11459664	      2.49114784	     35.18830291	      8.79002039	     47.60319354	    122.24837645	     97.14664483	     52.14194509	     11.45240211	     68.17901042	    123.46405192	     71.08653250
      6.10000000	      0.17060646	     -0.63419419	     -1.23922423	      0.20552603	      0.96456983	      0.08004739	      1.46700008	     -0.72346237	    -18.18450959	      2.04333117	      0.03566286	      2.49727890	      5.65070843	     -7.49999987	      0.97811227	     -5.64531853	    -21.16172666	      1.18363512	      0.02065833	      3.55169935	      5.98038403	     -7.49999987	      3.47225356	      2.13339160	      2.65098872	     34.97115429	      8.79901988	     47.53087147	    122.28002193	     97.54425008	     51.76562193	     11.36905018	     67.89477105	    123.64298078	     71.02925516
      6.11666670	      0.24039779	     -0.55826925	     -1.12123606	      0.20729134	      0.96462007	      0.07970577	      1.24066969	     -0.81213679	    -17.83597500	      1.92288657	      0.03356070	      2.83963724	      5.97343717	     -7.49999987	      0.90649284	     -5.55730753	    -21.43484472	      1.22906719	      0.02145127	      3.53030196	      6.16807377	     -7.49999987	      3.67088512	      2.05984904	      2.76122307	     34.88403211	      8.57268826	     46.98522790	    122.23546128	     94.98574385	     51.71548370	     11.35780373	     67.73995799	    123.68497671	     70.25945598
      6.13333330	      0.20880627	     -0.51385091	     -1.16059005	      0.20770723	      0.96622499	      0.08000175	      1.19072323	     -0.82426807	    -17.51073900	      1.86373682	      0.03252834	      2.60564874	      5.52362477	     -7.49999987	      0.87227132	     -5.52748673	    -21.47016581	      1.20059865	      0.02095440	      3.31612270	      6.26254631	     -7.49999987	      3.85684265	      1.99498188	      2.90846735	     34.76084482	      8.31382566	     45.73472684	    122.08687179	     97.51332558	     51.77875318	     11.40475728	     67.67627164	    123.60013775	     71.53675669
      6.15000000	      0.21275125	     -0.45819971	     -1.07124738	      0.20972699	      0.96359796	      0.07914129	      1.09921982	     -0.89440437	    -16.99402228	      1.86016801	      0.03246606	      2.62505684	      5.09654766	     -7.49999987	      0.83198862	     -5.45770096	    -21.64181308	      1.21892853	      0.02127432	      3.25114553	      6.32987220	     -7.49999987	      3.98445431	      1.94923423	      2.76502544	     35.05158663	      8.49811069	     45.73619378	    121.94959938	     97.34991216	     52.02570963	     11.20401898	     67.51499240	    123.26364917	     71.65628815
